<?xml version="1.0" encoding="utf-8"?>
<!-- Generator: Adobe Illustrator 19.0.0, SVG Export Plug-In . SVG Version: 6.00 Build 0)  -->
<svg version="1.1" id="Capa_1" xmlns="http://www.w3.org/2000/svg" xmlns:xlink="http://www.w3.org/1999/xlink" x="0px" y="0px"
	 viewBox="0 0 31.8 34.2" style="enable-background:new 0 0 31.8 34.2;" xml:space="preserve">
<g id="XMLID_11_">
	<path id="XMLID_14_" d="M13.6,23.7L1.9,17.1c0,0-0.3-0.8,0-1.1C2.3,15.6,3,15.4,3,15.4s1.3,0.1,2-0.2c0.7-0.3,1.2-0.5,1.8-1.1
		s2-2.1,3-3.6S13.3,5,14.4,4s3.7-2.3,5.2-2.3c1.5,0,2.5,0.4,2.5,0.4s1.3-1.2,2.3-1.2c0.9,0,1.8,0.7,1.8,0.7"/>
	<path id="XMLID_13_" d="M13.6,23.7l12.1,6.8c0,0,0.9-0.1,1-0.6c0.1-0.5-0.2-1.2-0.2-1.2s-0.8-1.1-0.8-1.8c-0.1-0.8-0.2-1.3,0-2.1
		c0.2-0.9,0.7-2.8,1.5-4.4c0.8-1.6,3-5.8,3.2-7.3c0.3-1.5,0-4.4-0.8-5.6s-1.6-2-1.6-2s0.4-1.8-0.1-2.6c-0.5-0.8-1.7-1.3-1.7-1.3"/>
	<path id="XMLID_12_" d="M9.7,23.6c0,0-1.2,3.2,1.5,4.8s4.9-1.2,4.9-1.2L9.7,23.6z"/>
</g>
</svg>