<svg width="66" height="65" viewBox="0 0 66 65" fill="none" xmlns="http://www.w3.org/2000/svg">
<rect x="0.230957" width="65" height="65" fill="#0770D1"/>
<rect x="3.73096" y="4.50002" width="57" height="57" stroke="black"/>
<g clip-path="url(#clip0_48_1758)">
<path d="M49.6666 16.7384H23C22.6313 16.7384 22.3334 17.0371 22.3334 17.405C22.3334 17.773 22.6313 18.0717 23 18.0717H49.6666C50.7506 18.0717 51.6666 18.9877 51.6666 20.0717V49.405C51.6666 50.5264 50.7887 51.405 49.6666 51.405H17C15.5293 51.405 14.3334 50.209 14.3334 48.7384C14.3334 47.2677 15.5294 46.0718 17 46.0718C18.4706 46.0718 19.6666 47.2678 19.6666 48.7384C19.6666 49.1064 19.9646 49.405 20.3333 49.405C20.702 49.405 20.9999 49.1064 20.9999 48.7384V16.7384C21 14.5324 19.206 12.7384 17 12.7384C14.794 12.7384 13 14.5324 13 16.7384V48.7384C13 50.9444 14.794 52.7384 17 52.7384H49.6666C51.536 52.7384 53 51.2744 53 49.405V20.0718C53 18.2337 51.5047 16.7384 49.6666 16.7384ZM14.3334 16.7384C14.3334 15.2677 15.5294 14.0718 17 14.0718C18.4706 14.0718 19.6666 15.2677 19.6666 16.7384V45.7658C18.958 45.1291 18.0246 44.7384 17 44.7384C15.9754 44.7384 15.0413 45.129 14.3334 45.7658V16.7384Z" fill="black"/>
<path d="M40.3334 47.405C39.9647 47.405 39.6668 47.7037 39.6668 48.0717C39.6668 48.4397 39.9647 48.7383 40.3334 48.7383H48.3334C48.7021 48.7383 49 48.4397 49 48.0717V21.405C49 21.0371 48.7021 20.7384 48.3334 20.7384H24.3334C23.9647 20.7384 23.6667 21.0371 23.6667 21.405V48.0717C23.6667 48.4397 23.9647 48.7383 24.3334 48.7383H37.6668C38.0354 48.7383 38.3334 48.4397 38.3334 48.0717C38.3334 44.9883 40.6707 42.441 43.6667 42.1083V45.405C43.6667 45.7729 43.9647 46.0716 44.3334 46.0716C44.7021 46.0716 45 45.7729 45 45.405V41.405C45 41.037 44.7021 40.7383 44.3334 40.7383C40.5147 40.7383 37.3727 43.673 37.034 47.405H25V36.7384H37.6667C38.0353 36.7384 38.3333 36.4397 38.3333 36.0718V33.4051C38.3333 33.0372 38.0353 32.7385 37.6667 32.7385C37.298 32.7385 37 33.0372 37 33.4051V35.4051H25V22.0718H37V26.7384C37 27.1064 37.298 27.405 37.6667 27.405C38.0353 27.405 38.3333 27.1064 38.3333 26.7384V22.0718H47.6667V35.4051H44.3333C43.9646 35.4051 43.6667 35.7038 43.6667 36.0718C43.6667 36.4397 43.9646 36.7384 44.3333 36.7384H47.6667V47.405H40.3334Z" fill="black"/>
</g>
<defs>
<clipPath id="clip0_48_1758">
<rect width="40" height="40" fill="white" transform="translate(13 12.7384)"/>
</clipPath>
</defs>
</svg>
